<svg width="200" height="120" xmlns="http://www.w3.org/2000/svg" shape-rendering="crispEdges">
  <style type="text/css">
    path {
      fill: none;
      stroke-linecap: square;
      stroke-width: 20;
    }
  </style>
  <rect x="0" y="0" width="200" height="120" fill="#fff" />
  <path d="M 0,24 L 114,24 C 130,24 138,16 138,0" stroke="#ee1c25" />
  <path d="M 0,48 L 162,48 C 178,48 186,40 186,24 L 186,0" stroke="#ffe700" />
  <path d="M 0,72 L 162,72 C 186,72 186,72 203,89" stroke="#00adee" />
  <path d="M 0,96 L 118,96 C 142,96 142,96 159,113 L 166,120" stroke="#4cb847" />
  <path d="M 162,0 L 162,58 C 162,82 162,82 179,99 L 200,120" stroke="#fba61c" />
</svg>